# xmcd
#
# Track frame offsets:
#	150
#	34540
#	69990
#	92800
#	131100
#	158318
#	201018
#	251523
#	296965
#	320870
#
# Disc length: 4311 seconds
# Revision: 0
# Processed by: cddbd v1.5.2PL0 Copyright (c) Steve Scherf et al.
# Submitted via: dBpowerAMP V12.0
#
DISCID=8d10d50a
DTITLE=Rory Gallagher - Irish Tour
DYEAR=1974
DGENRE=Rock
TTITLE0=Cradle Rock
TTITLE1=I Wonder Who
TTITLE2=Tattoo'd Lady
TTITLE3=Too Much Alcohol
TTITLE4=As the Crow Flies
TTITLE5=A Million Miles Away
TTITLE6=Walk on Hot Coals
TTITLE7=Who's That Coming?
TTITLE8=Back on My Stompin' Ground (After Hours)
TTITLE9=Maritime
EXTD=
EXTT0=
EXTT1=
EXTT2=
EXTT3=
EXTT4=
EXTT5=
EXTT6=
EXTT7=
EXTT8=
EXTT9=
PLAYORDER=
